<svg width="194" height="31" viewBox="0 0 194 31" fill="none" xmlns="http://www.w3.org/2000/svg">
<path d="M12.532 8.076C14.968 8.076 16.62 8.706 17.488 9.966C18.384 11.198 18.832 12.962 18.832 15.258V30H12.952V16.308C12.952 15.216 12.77 14.376 12.406 13.788C12.07 13.172 11.23 12.864 9.886 12.864C8.542 12.864 7.324 13.382 6.232 14.418V30H0.226V8.454H5.182L5.686 10.848C6.498 10.092 7.52 9.448 8.752 8.916C10.012 8.356 11.272 8.076 12.532 8.076ZM36.1737 28.026C34.0177 29.706 31.7217 30.546 29.2857 30.546C26.8777 30.546 25.2257 29.93 24.3297 28.698C23.4617 27.438 23.0277 25.66 23.0277 23.364V8.454H28.9077V22.314C28.9077 23.434 29.0757 24.288 29.4117 24.876C29.7477 25.464 30.5737 25.758 31.8897 25.758C33.2337 25.758 34.4797 25.324 35.6277 24.456V8.454H41.5077V30.546H36.6777L36.1737 28.026ZM54.4424 25.296L58.9364 8.454H64.8584L58.1384 30H50.7464L44.1524 8.454H50.0744L54.4424 25.296ZM71.5794 19.836C71.6354 24.036 73.4834 26.136 77.1234 26.136C78.8314 26.136 80.5254 25.814 82.2054 25.17L83.2134 29.16C81.0574 30.084 78.6634 30.546 76.0314 30.546C69.3954 30.546 66.0774 26.64 66.0774 18.828C66.0774 15.748 66.9034 13.186 68.5554 11.142C70.2074 9.098 72.5874 8.076 75.6954 8.076C78.1874 8.076 80.1054 8.748 81.4494 10.092C82.8214 11.408 83.5074 13.256 83.5074 15.636C83.5074 17.036 83.3254 18.436 82.9614 19.836H71.5794ZM78.8034 16.644V16.392C78.8034 13.62 77.8234 12.234 75.8634 12.234C73.5114 12.234 72.0974 13.704 71.6214 16.644H78.8034ZM92.4311 10.848C93.1591 10.12 94.1531 9.476 95.4131 8.916C96.7011 8.356 98.0591 8.076 99.4871 8.076C100.915 8.076 102.021 8.314 102.805 8.79C103.589 9.266 104.219 9.994 104.695 10.974C105.451 10.19 106.473 9.518 107.761 8.958C109.077 8.37 110.393 8.076 111.709 8.076C114.117 8.076 115.741 8.706 116.581 9.966C117.449 11.198 117.883 12.962 117.883 15.258V30H112.003V16.308C112.003 14.516 111.625 13.452 110.869 13.116C110.505 12.948 110.015 12.864 109.399 12.864C107.831 12.864 106.501 13.382 105.409 14.418C105.437 14.614 105.451 14.908 105.451 15.3V30H99.5711V16.308C99.5711 14.516 99.1931 13.452 98.4371 13.116C98.0731 12.948 97.5831 12.864 96.9671 12.864C95.3991 12.864 94.0691 13.382 92.9771 14.418V30H87.0971V8.454H91.9271L92.4311 10.848ZM134.06 4.296H138.47L144.35 23.112L145.862 1.944H151.448L148.634 30H142.334L136.244 9.252L130.196 30H123.896L121.082 1.944H126.626L128.138 23.154L134.06 4.296ZM159.189 19.836C159.245 24.036 161.093 26.136 164.733 26.136C166.441 26.136 168.135 25.814 169.815 25.17L170.823 29.16C168.667 30.084 166.273 30.546 163.641 30.546C157.005 30.546 153.687 26.64 153.687 18.828C153.687 15.748 154.513 13.186 156.165 11.142C157.817 9.098 160.197 8.076 163.305 8.076C165.797 8.076 167.715 8.748 169.059 10.092C170.431 11.408 171.117 13.256 171.117 15.636C171.117 17.036 170.935 18.436 170.571 19.836H159.189ZM166.413 16.644V16.392C166.413 13.62 165.433 12.234 163.473 12.234C161.121 12.234 159.707 13.704 159.231 16.644H166.413ZM180.544 0.557999V9.84C181.132 9.364 181.916 8.958 182.896 8.622C183.904 8.258 184.912 8.076 185.92 8.076C188.216 8.076 190.106 8.958 191.59 10.722C193.074 12.458 193.816 14.95 193.816 18.198C193.816 22.202 193.004 25.268 191.38 27.396C189.756 29.496 187.152 30.546 183.568 30.546C182.028 30.546 180.376 30.392 178.612 30.084C176.848 29.804 175.532 29.468 174.664 29.076V0.557999H180.544ZM182.728 25.8C184.66 25.8 186.004 25.212 186.76 24.036C187.516 22.86 187.894 21.152 187.894 18.912C187.894 16.672 187.586 15.104 186.97 14.208C186.382 13.312 185.472 12.864 184.24 12.864C183.008 12.864 181.776 13.242 180.544 13.998V25.59C181.3 25.73 182.028 25.8 182.728 25.8Z" fill="#8697CB"/>
</svg>
